<?xml version="1.0" standalone="no"?>
<!DOCTYPE svg PUBLIC "-//W3C//DTD SVG 20010904//EN"
 "http://www.w3.org/TR/2001/REC-SVG-20010904/DTD/svg10.dtd">
<svg version="1.0" xmlns="http://www.w3.org/2000/svg"
 width="512.000000pt" height="512.000000pt" viewBox="0 0 512.000000 512.000000"
 preserveAspectRatio="xMidYMid meet">

<g transform="translate(0.000000,512.000000) scale(0.100000,-0.100000)"
fill="#ffffff" stroke="none">
<path d="M2692 5100 c-20 -19 -22 -31 -22 -116 0 -118 -14 -175 -86 -345 -72
-171 -87 -234 -82 -329 6 -89 29 -140 88 -194 59 -53 103 -69 185 -70 59 0 79
4 125 29 62 34 114 97 131 158 24 88 -11 204 -78 257 -37 29 -89 24 -116 -12
-24 -32 -18 -63 18 -102 46 -49 45 -108 -2 -152 -54 -50 -144 -36 -183 28 -40
67 -24 161 61 355 64 144 89 244 89 349 0 88 -10 129 -38 150 -25 20 -65 17
-90 -6z"/>
<path d="M2240 4773 c-15 -19 -20 -35 -15 -53 3 -14 8 -70 12 -125 7 -121 -6
-178 -71 -322 -72 -160 -81 -196 -81 -308 1 -80 5 -111 24 -158 42 -106 181
-227 261 -227 35 0 70 38 70 77 0 33 -17 52 -70 78 -81 40 -129 112 -137 206
-7 74 7 127 68 265 65 147 89 244 89 358 0 106 -21 204 -46 223 -31 23 -80 16
-104 -14z"/>
<path d="M1095 3424 c-16 -8 -52 -37 -80 -63 -60 -58 -137 -110 -267 -180 -76
-41 -99 -58 -104 -78 -10 -38 7 -76 41 -92 28 -14 34 -12 140 43 112 57 208
120 289 189 l45 39 60 -51 c89 -74 137 -104 283 -182 122 -66 258 -152 258
-165 0 -3 -9 -19 -21 -35 -87 -123 -135 -351 -106 -511 l13 -78 -622 0 -622 0
-14 53 c-7 28 -12 95 -12 147 1 114 32 215 94 314 48 76 52 115 14 145 -39 30
-62 26 -105 -19 -115 -121 -182 -387 -145 -575 l16 -79 -24 -26 c-41 -43 -46
-65 -46 -184 l0 -115 -41 -11 c-53 -15 -113 -69 -127 -118 -18 -60 -15 -575 3
-627 12 -34 12 -45 0 -83 -18 -52 -22 -553 -5 -614 19 -68 87 -128 145 -128
l25 0 0 -118 c0 -135 13 -173 71 -204 32 -17 98 -18 1477 -18 l1443 0 24 25
c32 31 32 69 0 100 l-24 25 -1421 0 -1420 0 0 95 0 95 2230 0 2230 0 0 -95 0
-95 -660 0 -661 0 -24 -25 c-14 -13 -25 -36 -25 -50 0 -14 11 -37 25 -50 l24
-25 683 0 c643 0 685 1 717 18 58 31 71 69 71 204 l0 118 25 0 c58 0 126 60
145 128 16 60 12 568 -5 617 -12 34 -12 45 0 83 12 33 15 103 15 320 0 247 -2
281 -19 317 -23 51 -70 91 -121 105 l-40 11 0 115 c0 119 -5 141 -46 184 -24
26 -24 26 -9 104 19 98 19 142 0 250 -36 206 -147 379 -320 495 -38 26 -119
74 -180 106 -151 80 -205 115 -280 185 -118 110 -171 109 -296 -6 -71 -65
-124 -100 -289 -188 -69 -37 -155 -90 -192 -117 l-68 -48 -74 53 c-41 29 -128
82 -193 116 -160 85 -210 118 -293 194 -112 103 -168 103 -280 0 -83 -76 -133
-109 -293 -194 -65 -34 -152 -87 -193 -116 l-74 -53 -73 52 c-40 29 -118 76
-172 106 -161 87 -246 142 -307 198 -91 84 -147 101 -213 67z m1549 -211 c81
-66 134 -99 317 -196 116 -62 199 -125 250 -189 121 -153 170 -389 110 -541
l-11 -27 -752 2 -753 3 -14 40 c-8 24 -14 80 -15 140 0 114 17 184 70 285 70
133 146 198 374 320 134 71 218 127 295 194 22 19 41 35 43 36 1 0 40 -30 86
-67z m1377 19 c72 -61 138 -105 269 -177 271 -150 365 -242 426 -422 32 -91
38 -232 16 -320 l-14 -53 -622 0 -622 0 14 83 c26 148 -13 348 -94 482 -19 32
-34 59 -34 61 0 10 142 101 247 157 154 83 212 121 288 185 33 28 62 51 65 52
3 0 30 -22 61 -48z m769 -1217 l0 -95 -2230 0 -2230 0 0 95 0 95 2230 0 2230
0 0 -95z m168 -257 c17 -17 17 -529 0 -546 -17 -17 -4779 -17 -4796 0 -17 17
-17 529 0 546 17 17 4779 17 4796 0z m7 -730 c3 -13 4 -138 3 -278 l-3 -255
-2405 0 -2405 0 -3 255 c-1 140 0 265 3 278 l5 22 2400 0 2400 0 5 -22z"/>
<path d="M2299 2957 c-37 -28 -169 -221 -169 -247 0 -65 86 -92 131 -42 43 47
139 181 149 208 24 62 -58 122 -111 81z"/>
<path d="M2510 2950 c-18 -18 -20 -33 -20 -179 l0 -160 26 -20 c15 -12 34 -21
44 -21 10 0 29 9 44 21 l26 20 0 160 c0 146 -2 161 -20 179 -11 11 -33 20 -50
20 -17 0 -39 -9 -50 -20z"/>
<path d="M2739 2960 c-28 -16 -43 -64 -28 -92 16 -30 115 -165 148 -200 46
-51 131 -23 131 44 0 24 -133 218 -169 245 -19 15 -60 16 -82 3z"/>
<path d="M3688 2943 c-65 -71 -158 -208 -158 -233 0 -39 40 -72 81 -68 27 2
43 15 82 63 90 111 129 177 122 205 -14 61 -84 79 -127 33z"/>
<path d="M3910 2950 c-18 -18 -20 -33 -20 -179 l0 -160 26 -20 c15 -12 33 -21
40 -21 29 0 64 25 74 53 13 40 13 255 -1 296 -19 53 -81 69 -119 31z"/>
<path d="M4137 2958 c-27 -22 -37 -60 -22 -93 8 -17 46 -73 87 -125 67 -86 77
-95 110 -98 27 -2 43 3 57 17 38 38 27 71 -55 183 -87 117 -98 128 -134 128
-14 0 -34 -6 -43 -12z"/>
<path d="M456 1539 c-69 -54 6 -160 85 -118 48 25 43 110 -8 130 -35 13 -47
11 -77 -12z"/>
<path d="M4584 1550 c-48 -19 -52 -105 -5 -129 78 -42 154 64 85 118 -28 22
-46 25 -80 11z"/>
<path d="M450 820 c-11 -11 -20 -33 -20 -49 0 -71 80 -101 127 -47 28 33 29
56 2 90 -26 33 -79 36 -109 6z"/>
<path d="M4561 814 c-27 -34 -26 -57 2 -90 47 -54 127 -24 127 47 0 66 -88 95
-129 43z"/>
<path d="M898 2958 c-9 -7 -50 -59 -92 -116 -82 -112 -93 -145 -55 -183 14
-14 30 -19 57 -17 33 3 43 12 110 98 90 116 103 143 90 182 -16 45 -74 64
-110 36z"/>
<path d="M1117 2958 c-28 -22 -37 -66 -37 -187 0 -133 10 -173 46 -190 35 -16
47 -14 78 10 l26 20 0 159 c0 151 -1 160 -22 180 -25 23 -66 26 -91 8z"/>
<path d="M1332 2953 c-39 -33 -37 -63 7 -128 22 -33 62 -87 88 -120 39 -48 55
-61 82 -63 41 -4 81 29 81 68 0 25 -93 162 -158 233 -30 31 -70 35 -100 10z"/>
</g>
</svg>
